<?xml version="1.0" encoding="UTF-8" standalone="no"?>
<!DOCTYPE svg PUBLIC "-//W3C//DTD SVG 1.1//EN"
 "http://www.w3.org/Graphics/SVG/1.1/DTD/svg11.dtd">
<!-- Generated by graphviz version 2.38.0 (20140413.2041)
 -->
<!-- Title: ini_parser Pages: 1 -->
<svg width="3429pt" height="1341pt"
 viewBox="0.00 0.00 3428.60 1340.59" xmlns="http://www.w3.org/2000/svg" xmlns:xlink="http://www.w3.org/1999/xlink">
<g id="graph0" class="graph" transform="scale(1 1) rotate(0) translate(4 1336.59)">
<title>ini_parser</title>
<polygon fill="white" stroke="none" points="-4,4 -4,-1336.59 3424.6,-1336.59 3424.6,4 -4,4"/>
<!-- ENTRY -->
<g id="node1" class="node"><title>ENTRY</title>
<ellipse fill="black" stroke="black" cx="1.8" cy="-509.588" rx="1.8" ry="1.8"/>
</g>
<!-- 17 -->
<g id="node3" class="node"><title>17</title>
<ellipse fill="none" stroke="black" cx="94.1" cy="-490.588" rx="23.5" ry="23.5"/>
<ellipse fill="none" stroke="black" cx="94.1" cy="-490.588" rx="27.5" ry="27.5"/>
<text text-anchor="middle" x="94.1" y="-486.888" font-family="Times New Roman,serif" font-size="14.00">17</text>
</g>
<!-- ENTRY&#45;&gt;17 -->
<g id="edge90" class="edge"><title>ENTRY&#45;&gt;17</title>
<path fill="none" stroke="black" d="M3.81411,-509.375C9.15742,-508.251 34.6463,-502.887 57.0296,-498.178"/>
<polygon fill="black" stroke="black" points="57.9468,-501.562 67.0118,-496.077 56.5054,-494.712 57.9468,-501.562"/>
<text text-anchor="middle" x="35.1" y="-509.388" font-family="Times New Roman,serif" font-size="14.00">IN</text>
</g>
<!-- en_17 -->
<g id="node2" class="node"><title>en_17</title>
<ellipse fill="black" stroke="black" cx="1.8" cy="-471.588" rx="1.8" ry="1.8"/>
</g>
<!-- en_17&#45;&gt;17 -->
<g id="edge91" class="edge"><title>en_17&#45;&gt;17</title>
<path fill="none" stroke="black" d="M3.81411,-471.802C9.15742,-472.926 34.6463,-478.289 57.0296,-482.999"/>
<polygon fill="black" stroke="black" points="56.5054,-486.465 67.0118,-485.099 57.9468,-479.615 56.5054,-486.465"/>
<text text-anchor="middle" x="35.1" y="-485.388" font-family="Times New Roman,serif" font-size="14.00">main</text>
</g>
<!-- 18 -->
<g id="node4" class="node"><title>18</title>
<ellipse fill="none" stroke="black" cx="1192.1" cy="-478.588" rx="23.5" ry="23.5"/>
<ellipse fill="none" stroke="black" cx="1192.1" cy="-478.588" rx="27.5" ry="27.5"/>
<text text-anchor="middle" x="1192.1" y="-474.888" font-family="Times New Roman,serif" font-size="14.00">18</text>
</g>
<!-- 17&#45;&gt;18 -->
<g id="edge72" class="edge"><title>17&#45;&gt;18</title>
<path fill="none" stroke="black" d="M119.995,-480.802C150.928,-469.543 205.568,-452.588 254.1,-452.588 254.1,-452.588 254.1,-452.588 761.1,-452.588 906.875,-452.588 1079.94,-467.661 1154.23,-474.854"/>
<polygon fill="black" stroke="black" points="1154.17,-478.364 1164.46,-475.855 1154.85,-471.397 1154.17,-478.364"/>
<text text-anchor="middle" x="408.1" y="-456.388" font-family="Times New Roman,serif" font-size="14.00">&#39;\n&#39;</text>
</g>
<!-- 1 -->
<g id="node6" class="node"><title>1</title>
<ellipse fill="none" stroke="black" cx="1678.1" cy="-1019.59" rx="23.5" ry="23.5"/>
<text text-anchor="middle" x="1678.1" y="-1015.89" font-family="Times New Roman,serif" font-size="14.00">1</text>
</g>
<!-- 17&#45;&gt;1 -->
<g id="edge76" class="edge"><title>17&#45;&gt;1</title>
<path fill="none" stroke="black" d="M94.6582,-518.207C93.146,-657.854 95.3285,-1279.59 254.1,-1279.59 254.1,-1279.59 254.1,-1279.59 1014.1,-1279.59 1232.49,-1279.59 1290.42,-1256.39 1495.6,-1181.59 1556.87,-1159.25 1582.13,-1165.35 1628.6,-1119.59 1647.59,-1100.89 1660.21,-1073.26 1667.8,-1051.77"/>
<polygon fill="black" stroke="black" points="1671.19,-1052.68 1671.03,-1042.09 1664.55,-1050.47 1671.19,-1052.68"/>
<text text-anchor="middle" x="581.1" y="-1283.39" font-family="Times New Roman,serif" font-size="14.00">DEF / k_begin</text>
</g>
<!-- 5 -->
<g id="node8" class="node"><title>5</title>
<ellipse fill="none" stroke="black" cx="3397.1" cy="-489.588" rx="23.5" ry="23.5"/>
<text text-anchor="middle" x="3397.1" y="-485.888" font-family="Times New Roman,serif" font-size="14.00">5</text>
</g>
<!-- 17&#45;&gt;5 -->
<g id="edge73" class="edge"><title>17&#45;&gt;5</title>
<path fill="none" stroke="black" d="M95.7279,-518.421C98.6583,-641.619 112.026,-1134.56 139.6,-1197.59 169.147,-1265.12 180.383,-1317.59 254.1,-1317.59 254.1,-1317.59 254.1,-1317.59 3221.6,-1317.59 3386.58,-1317.59 3396.39,-680.197 3396.31,-523.883"/>
<polygon fill="black" stroke="black" points="3399.81,-523.469 3396.29,-513.476 3392.81,-523.483 3399.81,-523.469"/>
<text text-anchor="middle" x="1678.1" y="-1321.39" font-family="Times New Roman,serif" font-size="14.00">&#39;\r&#39;</text>
</g>
<!-- 4 -->
<g id="node10" class="node"><title>4</title>
<ellipse fill="none" stroke="black" cx="1439.6" cy="-440.588" rx="23.5" ry="23.5"/>
<text text-anchor="middle" x="1439.6" y="-436.888" font-family="Times New Roman,serif" font-size="14.00">4</text>
</g>
<!-- 17&#45;&gt;4 -->
<g id="edge71" class="edge"><title>17&#45;&gt;4</title>
<path fill="none" stroke="black" d="M103.135,-464.431C121.011,-412.121 169.319,-299.588 254.1,-299.588 254.1,-299.588 254.1,-299.588 1193.1,-299.588 1285.68,-299.588 1374.93,-375.922 1415.63,-416.26"/>
<polygon fill="black" stroke="black" points="1413.36,-418.939 1422.88,-423.58 1418.33,-414.013 1413.36,-418.939"/>
<text text-anchor="middle" x="477.6" y="-303.388" font-family="Times New Roman,serif" font-size="14.00">&#39;\t&#39;, &#39;\v&#39;..&#39;\f&#39;, SP</text>
</g>
<!-- 6 -->
<g id="node11" class="node"><title>6</title>
<ellipse fill="none" stroke="black" cx="1678.1" cy="-585.588" rx="23.5" ry="23.5"/>
<text text-anchor="middle" x="1678.1" y="-581.888" font-family="Times New Roman,serif" font-size="14.00">6</text>
</g>
<!-- 17&#45;&gt;6 -->
<g id="edge74" class="edge"><title>17&#45;&gt;6</title>
<path fill="none" stroke="black" d="M121.826,-490.588C153.42,-490.588 207.587,-490.588 254.1,-490.588 254.1,-490.588 254.1,-490.588 478.6,-490.588 663.78,-490.588 749.999,-476.389 877.6,-610.588 900.626,-634.805 869.294,-662.981 895.6,-683.588 977.82,-747.997 1026.35,-689.949 1130.6,-683.588 1353.17,-670.007 1422.09,-706.703 1628.6,-622.588 1637.06,-619.143 1645.32,-613.819 1652.56,-608.274"/>
<polygon fill="black" stroke="black" points="1655.01,-610.796 1660.54,-601.761 1650.58,-605.372 1655.01,-610.796"/>
<text text-anchor="middle" x="581.1" y="-495.388" font-family="Times New Roman,serif" font-size="14.00">&#39;#&#39;, &#39;;&#39; / k_begin</text>
</g>
<!-- 7 -->
<g id="node12" class="node"><title>7</title>
<ellipse fill="none" stroke="black" cx="1678.1" cy="-171.588" rx="23.5" ry="23.5"/>
<text text-anchor="middle" x="1678.1" y="-167.888" font-family="Times New Roman,serif" font-size="14.00">7</text>
</g>
<!-- 17&#45;&gt;7 -->
<g id="edge75" class="edge"><title>17&#45;&gt;7</title>
<path fill="none" stroke="black" d="M99.3251,-463.419C114.518,-370.571 169.974,-71.5882 254.1,-71.5882 254.1,-71.5882 254.1,-71.5882 1440.6,-71.5882 1522.38,-71.5882 1608.4,-122.941 1650.59,-152.047"/>
<polygon fill="black" stroke="black" points="1648.71,-155.007 1658.91,-157.893 1652.74,-149.28 1648.71,-155.007"/>
<text text-anchor="middle" x="581.1" y="-75.3882" font-family="Times New Roman,serif" font-size="14.00">&#39;[&#39; / k_begin</text>
</g>
<!-- 14 -->
<g id="node19" class="node"><title>14</title>
<ellipse fill="none" stroke="black" cx="255.1" cy="-1085.59" rx="23.5" ry="23.5"/>
<text text-anchor="middle" x="255.1" y="-1081.89" font-family="Times New Roman,serif" font-size="14.00">14</text>
</g>
<!-- 17&#45;&gt;14 -->
<g id="edge70" class="edge"><title>17&#45;&gt;14</title>
<path fill="none" stroke="black" d="M102.137,-516.922C127.933,-613.452 217.27,-947.765 245.488,-1053.36"/>
<polygon fill="black" stroke="black" points="242.136,-1054.37 248.099,-1063.13 248.899,-1052.57 242.136,-1054.37"/>
<text text-anchor="middle" x="176.6" y="-930.388" font-family="Times New Roman,serif" font-size="14.00">&#45;17 / k_begin</text>
</g>
<!-- 18&#45;&gt;18 -->
<g id="edge78" class="edge"><title>18&#45;&gt;18</title>
<path fill="none" stroke="black" d="M1172.27,-498.231C1166.68,-511.334 1173.3,-524.088 1192.1,-524.088 1206.06,-524.088 1213.3,-517.063 1213.82,-508.083"/>
<polygon fill="black" stroke="black" points="1217.25,-507.394 1211.93,-498.231 1210.38,-508.711 1217.25,-507.394"/>
<text text-anchor="middle" x="1192.1" y="-527.888" font-family="Times New Roman,serif" font-size="14.00">&#39;\n&#39;</text>
</g>
<!-- 18&#45;&gt;1 -->
<g id="edge82" class="edge"><title>18&#45;&gt;1</title>
<path fill="none" stroke="black" d="M1197.23,-505.725C1209.88,-588.522 1247.63,-832.656 1253.6,-838.588 1330.89,-915.364 1394.94,-835.918 1495.6,-877.588 1560.96,-904.648 1622.62,-962.073 1654.51,-995.006"/>
<polygon fill="black" stroke="black" points="1652.16,-997.609 1661.59,-1002.43 1657.22,-992.776 1652.16,-997.609"/>
<text text-anchor="middle" x="1439.6" y="-881.388" font-family="Times New Roman,serif" font-size="14.00">DEF / k_begin</text>
</g>
<!-- 18&#45;&gt;5 -->
<g id="edge79" class="edge"><title>18&#45;&gt;5</title>
<path fill="none" stroke="black" d="M1219.19,-484.818C1229.82,-487.192 1242.25,-489.763 1253.6,-491.588 1310.97,-500.816 1325.63,-501.471 1383.6,-505.588 1665.95,-525.644 1737.04,-527.588 2020.1,-527.588 2020.1,-527.588 2020.1,-527.588 3221.6,-527.588 3282.1,-527.588 3297.05,-518.851 3355.6,-503.588 3358.77,-502.762 3362.04,-501.807 3365.29,-500.791"/>
<polygon fill="black" stroke="black" points="3366.46,-504.093 3374.85,-497.629 3364.26,-497.447 3366.46,-504.093"/>
<text text-anchor="middle" x="2505.6" y="-531.388" font-family="Times New Roman,serif" font-size="14.00">&#39;\r&#39;</text>
</g>
<!-- 18&#45;&gt;4 -->
<g id="edge77" class="edge"><title>18&#45;&gt;4</title>
<path fill="none" stroke="black" d="M1213.04,-460.596C1224.13,-451.811 1238.68,-442.167 1253.6,-437.588 1305.25,-421.736 1368.88,-428.008 1406.46,-434.176"/>
<polygon fill="black" stroke="black" points="1405.89,-437.628 1416.34,-435.894 1407.09,-430.732 1405.89,-437.628"/>
<text text-anchor="middle" x="1309.6" y="-441.388" font-family="Times New Roman,serif" font-size="14.00">&#39;\t&#39;, &#39;\v&#39;..&#39;\f&#39;, SP</text>
</g>
<!-- 18&#45;&gt;6 -->
<g id="edge80" class="edge"><title>18&#45;&gt;6</title>
<path fill="none" stroke="black" d="M1208.79,-500.577C1219.73,-514.146 1235.57,-530.619 1253.6,-539.588 1386.13,-605.526 1570.31,-596.475 1644.35,-589.389"/>
<polygon fill="black" stroke="black" points="1644.86,-592.856 1654.46,-588.367 1644.16,-585.891 1644.86,-592.856"/>
<text text-anchor="middle" x="1439.6" y="-597.388" font-family="Times New Roman,serif" font-size="14.00">&#39;#&#39;, &#39;;&#39; / k_begin</text>
</g>
<!-- 18&#45;&gt;7 -->
<g id="edge81" class="edge"><title>18&#45;&gt;7</title>
<path fill="none" stroke="black" d="M1196.97,-451.303C1205.01,-398.675 1225.15,-286.08 1253.6,-260.588 1285.04,-232.416 1588.84,-213.762 1628.6,-199.588 1635.49,-197.132 1642.52,-193.7 1649.01,-190.079"/>
<polygon fill="black" stroke="black" points="1651.24,-192.831 1658.06,-184.729 1647.67,-186.806 1651.24,-192.831"/>
<text text-anchor="middle" x="1439.6" y="-235.388" font-family="Times New Roman,serif" font-size="14.00">&#39;[&#39; / k_begin</text>
</g>
<!-- 19 -->
<g id="node5" class="node"><title>19</title>
<ellipse fill="none" stroke="black" cx="477.6" cy="-795.588" rx="23.5" ry="23.5"/>
<ellipse fill="none" stroke="black" cx="477.6" cy="-795.588" rx="27.5" ry="27.5"/>
<text text-anchor="middle" x="477.6" y="-791.888" font-family="Times New Roman,serif" font-size="14.00">19</text>
</g>
<!-- 19&#45;&gt;18 -->
<g id="edge84" class="edge"><title>19&#45;&gt;18</title>
<path fill="none" stroke="black" d="M502.275,-783.164C512.993,-777.64 525.863,-771.144 537.6,-765.588 772.028,-654.619 1059.98,-533.25 1157.21,-492.671"/>
<polygon fill="black" stroke="black" points="1158.66,-495.859 1166.55,-488.78 1155.97,-489.398 1158.66,-495.859"/>
<text text-anchor="middle" x="760.1" y="-719.388" font-family="Times New Roman,serif" font-size="14.00">&#39;\n&#39;</text>
</g>
<!-- 19&#45;&gt;1 -->
<g id="edge89" class="edge"><title>19&#45;&gt;1</title>
<path fill="none" stroke="black" d="M477.729,-823.165C477.947,-867.957 485.472,-956.083 537.6,-1001.59 612.532,-1067 659.634,-1033.59 759.1,-1033.59 759.1,-1033.59 759.1,-1033.59 1440.6,-1033.59 1513.52,-1033.59 1598.87,-1026.87 1644.46,-1022.74"/>
<polygon fill="black" stroke="black" points="1644.99,-1026.21 1654.63,-1021.81 1644.35,-1019.24 1644.99,-1026.21"/>
<text text-anchor="middle" x="1192.1" y="-1037.39" font-family="Times New Roman,serif" font-size="14.00">DEF / k_begin</text>
</g>
<!-- 2 -->
<g id="node7" class="node"><title>2</title>
<ellipse fill="none" stroke="black" cx="2021.1" cy="-872.588" rx="23.5" ry="23.5"/>
<text text-anchor="middle" x="2021.1" y="-868.888" font-family="Times New Roman,serif" font-size="14.00">2</text>
</g>
<!-- 19&#45;&gt;2 -->
<g id="edge87" class="edge"><title>19&#45;&gt;2</title>
<path fill="none" stroke="black" d="M501.252,-809.888C512.21,-816.781 525.568,-825.149 537.6,-832.588 584.085,-861.329 592.054,-875.804 642.6,-896.588 749.48,-940.537 781.17,-940.445 895.6,-956.588 1328.98,-1017.73 1446.58,-967.74 1878.6,-897.588 1916.1,-891.499 1959.06,-883.807 1987.71,-878.574"/>
<polygon fill="black" stroke="black" points="1988.38,-882.01 1997.59,-876.765 1987.12,-875.125 1988.38,-882.01"/>
<text text-anchor="middle" x="1309.6" y="-988.388" font-family="Times New Roman,serif" font-size="14.00">&#39;=&#39; / k_end, k_begin</text>
</g>
<!-- 19&#45;&gt;5 -->
<g id="edge85" class="edge"><title>19&#45;&gt;5</title>
<path fill="none" stroke="black" d="M485.195,-768.96C494.285,-734.618 512.442,-673.599 537.6,-625.588 568.009,-567.557 599.006,-566.898 624.6,-506.588 642.925,-463.406 617.917,-442.478 642.6,-402.588 716.036,-283.909 774.901,-286.654 895.6,-216.588 1335.59,38.8234 1511.35,-2.58823 2020.1,-2.58823 2020.1,-2.58823 2020.1,-2.58823 3221.6,-2.58823 3320.98,-2.58823 3318.12,-89.5477 3355.6,-181.588 3375.63,-230.78 3388.81,-386.599 3393.83,-455.851"/>
<polygon fill="black" stroke="black" points="3390.36,-456.466 3394.56,-466.193 3397.34,-455.97 3390.36,-456.466"/>
<text text-anchor="middle" x="2254.1" y="-6.38823" font-family="Times New Roman,serif" font-size="14.00">&#39;\r&#39;</text>
</g>
<!-- 19&#45;&gt;6 -->
<g id="edge86" class="edge"><title>19&#45;&gt;6</title>
<path fill="none" stroke="black" d="M505.257,-793.053C555.071,-788.541 665.692,-779.588 759.1,-779.588 759.1,-779.588 759.1,-779.588 1440.6,-779.588 1524.58,-779.588 1567.16,-817.837 1628.6,-760.588 1662.92,-728.611 1633.25,-701.558 1646.6,-656.588 1650.7,-642.787 1656.72,-628.08 1662.33,-615.652"/>
<polygon fill="black" stroke="black" points="1665.67,-616.779 1666.7,-606.235 1659.32,-613.833 1665.67,-616.779"/>
<text text-anchor="middle" x="1192.1" y="-783.388" font-family="Times New Roman,serif" font-size="14.00">&#39;#&#39;, &#39;;&#39; / k_begin</text>
</g>
<!-- 19&#45;&gt;7 -->
<g id="edge88" class="edge"><title>19&#45;&gt;7</title>
<path fill="none" stroke="black" d="M495.687,-774.505C524.59,-739.269 585.562,-666.752 642.6,-610.588 741.986,-512.726 803.484,-520.747 877.6,-402.588 893.301,-377.557 876.795,-361.38 895.6,-338.588 975.674,-241.542 1032.81,-260.816 1148.6,-211.588 1299.51,-147.425 1349.61,-158.219 1513.6,-157.588 1564.71,-157.392 1577.99,-150.43 1628.6,-157.588 1634.24,-158.386 1640.14,-159.681 1645.81,-161.17"/>
<polygon fill="black" stroke="black" points="1645.08,-164.6 1655.65,-163.993 1647.01,-157.871 1645.08,-164.6"/>
<text text-anchor="middle" x="1192.1" y="-215.388" font-family="Times New Roman,serif" font-size="14.00">&#39;[&#39; / k_begin</text>
</g>
<!-- 16 -->
<g id="node21" class="node"><title>16</title>
<ellipse fill="none" stroke="black" cx="760.1" cy="-831.588" rx="23.5" ry="23.5"/>
<text text-anchor="middle" x="760.1" y="-827.888" font-family="Times New Roman,serif" font-size="14.00">16</text>
</g>
<!-- 19&#45;&gt;16 -->
<g id="edge83" class="edge"><title>19&#45;&gt;16</title>
<path fill="none" stroke="black" d="M504.989,-798.975C556.494,-805.585 670.274,-820.188 726.435,-827.396"/>
<polygon fill="black" stroke="black" points="726.18,-830.892 736.544,-828.693 727.071,-823.949 726.18,-830.892"/>
<text text-anchor="middle" x="581.1" y="-817.388" font-family="Times New Roman,serif" font-size="14.00">&#39;\t&#39;, &#39;\v&#39;..&#39;\f&#39;, SP</text>
</g>
<!-- 1&#45;&gt;1 -->
<g id="edge1" class="edge"><title>1&#45;&gt;1</title>
<path fill="none" stroke="black" d="M1660.79,-1035.78C1654.32,-1048.31 1660.09,-1061.09 1678.1,-1061.09 1691.33,-1061.09 1697.95,-1054.2 1697.97,-1045.57"/>
<polygon fill="black" stroke="black" points="1701.33,-1044.56 1695.41,-1035.78 1694.56,-1046.34 1701.33,-1044.56"/>
<text text-anchor="middle" x="1678.1" y="-1064.89" font-family="Times New Roman,serif" font-size="14.00">&#45;128..&#39;\t&#39;, &#39;\v&#39;..&#39;\f&#39;, 14..&#39;&lt;&#39;, &#39;&gt;&#39;..127</text>
</g>
<!-- 1&#45;&gt;2 -->
<g id="edge2" class="edge"><title>1&#45;&gt;2</title>
<path fill="none" stroke="black" d="M1701.6,-1017.83C1739.58,-1014.2 1818.19,-1003.79 1878.6,-976.588 1923.95,-956.17 1968.96,-919.546 1995.65,-895.659"/>
<polygon fill="black" stroke="black" points="1998.27,-898.002 2003.32,-888.687 1993.57,-892.82 1998.27,-898.002"/>
<text text-anchor="middle" x="1803.1" y="-1019.39" font-family="Times New Roman,serif" font-size="14.00">&#39;=&#39; / k_end</text>
</g>
<!-- 2&#45;&gt;18 -->
<g id="edge3" class="edge"><title>2&#45;&gt;18</title>
<path fill="none" stroke="black" d="M1998.81,-864.123C1940.5,-841.233 1772.94,-777.427 1628.6,-741.588 1464.65,-700.88 1380.48,-791.122 1253.6,-679.588 1206.62,-638.293 1195.44,-562.023 1193.18,-516.237"/>
<polygon fill="black" stroke="black" points="1196.67,-515.985 1192.8,-506.123 1189.67,-516.248 1196.67,-515.985"/>
<text text-anchor="middle" x="1571.1" y="-745.388" font-family="Times New Roman,serif" font-size="14.00">&#39;\n&#39; / v_begin, v_end</text>
</g>
<!-- 2&#45;&gt;2 -->
<g id="edge6" class="edge"><title>2&#45;&gt;2</title>
<path fill="none" stroke="black" d="M1998.68,-880.331C1968.07,-894.755 1975.54,-914.088 2021.1,-914.088 2061.5,-914.088 2071.95,-898.887 2052.46,-885.386"/>
<polygon fill="black" stroke="black" points="2053.95,-882.208 2043.52,-880.331 2050.5,-888.301 2053.95,-882.208"/>
<text text-anchor="middle" x="2021.1" y="-917.888" font-family="Times New Roman,serif" font-size="14.00">&#39;=&#39; / k_end, v_begin</text>
</g>
<!-- 2&#45;&gt;5 -->
<g id="edge4" class="edge"><title>2&#45;&gt;5</title>
<path fill="none" stroke="black" d="M2044.68,-872.588C2102.59,-872.588 2261.06,-872.588 2393.1,-872.588 2393.1,-872.588 2393.1,-872.588 3221.6,-872.588 3374.45,-872.588 3394.02,-616.852 3396.06,-523.324"/>
<polygon fill="black" stroke="black" points="3399.56,-523.314 3396.23,-513.258 3392.56,-523.199 3399.56,-523.314"/>
<text text-anchor="middle" x="2799.6" y="-876.388" font-family="Times New Roman,serif" font-size="14.00">&#39;\r&#39; / v_begin, v_end</text>
</g>
<!-- 3 -->
<g id="node9" class="node"><title>3</title>
<ellipse fill="none" stroke="black" cx="2394.1" cy="-754.588" rx="23.5" ry="23.5"/>
<text text-anchor="middle" x="2394.1" y="-750.888" font-family="Times New Roman,serif" font-size="14.00">3</text>
</g>
<!-- 2&#45;&gt;3 -->
<g id="edge5" class="edge"><title>2&#45;&gt;3</title>
<path fill="none" stroke="black" d="M2041.46,-860.652C2068,-844.846 2117.65,-817.264 2163.6,-802.588 2241.21,-777.802 2266,-795.014 2344.6,-773.588 2350.52,-771.973 2356.72,-769.878 2362.62,-767.671"/>
<polygon fill="black" stroke="black" points="2364.16,-770.829 2372.19,-763.917 2361.6,-764.314 2364.16,-770.829"/>
<text text-anchor="middle" x="2254.1" y="-806.388" font-family="Times New Roman,serif" font-size="14.00">&#39;#&#39;, &#39;;&#39; / v_begin, v_end</text>
</g>
<!-- 2&#45;&gt;3 -->
<g id="edge7" class="edge"><title>2&#45;&gt;3</title>
<path fill="none" stroke="black" d="M2036.25,-854.594C2059.37,-826.823 2108.26,-774.634 2163.6,-754.588 2230.5,-730.353 2315.75,-739.931 2361.19,-747.94"/>
<polygon fill="black" stroke="black" points="2360.58,-751.388 2371.05,-749.766 2361.86,-744.505 2360.58,-751.388"/>
<text text-anchor="middle" x="2254.1" y="-758.388" font-family="Times New Roman,serif" font-size="14.00">DEF / v_begin</text>
</g>
<!-- 5&#45;&gt;18 -->
<g id="edge19" class="edge"><title>5&#45;&gt;18</title>
<path fill="none" stroke="black" d="M3373.51,-489.588C3340.25,-489.588 3276.13,-489.588 3221.6,-489.588 2253.1,-489.588 2253.1,-489.588 2253.1,-489.588 2019.19,-489.588 1959.23,-493.197 1727.6,-460.588 1622.87,-445.844 1600.7,-419.441 1495.6,-407.588 1388.46,-395.506 1351.63,-379.704 1253.6,-424.588 1240.34,-430.66 1227.9,-440.66 1217.8,-450.415"/>
<polygon fill="black" stroke="black" points="1215.08,-448.183 1210.55,-457.758 1220.06,-453.101 1215.08,-448.183"/>
<text text-anchor="middle" x="2505.6" y="-493.388" font-family="Times New Roman,serif" font-size="14.00">&#39;\n&#39;</text>
</g>
<!-- 3&#45;&gt;18 -->
<g id="edge8" class="edge"><title>3&#45;&gt;18</title>
<path fill="none" stroke="black" d="M2372.25,-744.996C2363.83,-741.5 2353.91,-737.853 2344.6,-735.588 1927.34,-634.128 1809.07,-693.666 1383.6,-635.588 1325.54,-627.663 1299.94,-649.45 1253.6,-613.588 1222.85,-589.794 1207.31,-546.932 1199.75,-515.874"/>
<polygon fill="black" stroke="black" points="1203.1,-514.82 1197.48,-505.839 1196.27,-516.365 1203.1,-514.82"/>
<text text-anchor="middle" x="1678.1" y="-668.388" font-family="Times New Roman,serif" font-size="14.00">&#39;\n&#39; / v_end</text>
</g>
<!-- 3&#45;&gt;2 -->
<g id="edge11" class="edge"><title>3&#45;&gt;2</title>
<path fill="none" stroke="black" d="M2382.71,-775.363C2374.41,-789.657 2361.41,-807.771 2344.6,-817.588 2274.43,-858.581 2243.67,-829.646 2163.6,-843.588 2125.76,-850.178 2082.54,-859.266 2053.92,-865.502"/>
<polygon fill="black" stroke="black" points="2053.1,-862.099 2044.08,-867.66 2054.6,-868.937 2053.1,-862.099"/>
<text text-anchor="middle" x="2254.1" y="-847.388" font-family="Times New Roman,serif" font-size="14.00">&#39;=&#39; / k_end</text>
</g>
<!-- 3&#45;&gt;5 -->
<g id="edge9" class="edge"><title>3&#45;&gt;5</title>
<path fill="none" stroke="black" d="M2415.03,-743.494C2452.82,-723.526 2538.04,-683.588 2615.1,-683.588 2615.1,-683.588 2615.1,-683.588 3221.6,-683.588 3294.35,-683.588 3310.31,-646.522 3355.6,-589.588 3371.33,-569.81 3381.73,-543.102 3388.05,-522.264"/>
<polygon fill="black" stroke="black" points="3391.44,-523.138 3390.83,-512.561 3384.71,-521.211 3391.44,-523.138"/>
<text text-anchor="middle" x="2904.1" y="-687.388" font-family="Times New Roman,serif" font-size="14.00">&#39;\r&#39; / v_end</text>
</g>
<!-- 3&#45;&gt;3 -->
<g id="edge10" class="edge"><title>3&#45;&gt;3</title>
<path fill="none" stroke="black" d="M2384.09,-775.941C2382.71,-786.59 2386.04,-796.088 2394.1,-796.088 2399.39,-796.088 2402.64,-791.998 2403.86,-786.176"/>
<polygon fill="black" stroke="black" points="2407.37,-786.022 2404.11,-775.941 2400.37,-785.854 2407.37,-786.022"/>
<text text-anchor="middle" x="2394.1" y="-799.888" font-family="Times New Roman,serif" font-size="14.00">&#39;#&#39;, &#39;;&#39; / v_end</text>
</g>
<!-- 3&#45;&gt;3 -->
<g id="edge12" class="edge"><title>3&#45;&gt;3</title>
<path fill="none" stroke="black" d="M2378.47,-772.558C2368.37,-792.008 2373.58,-814.088 2394.1,-814.088 2411.25,-814.088 2417.71,-798.658 2413.46,-782.234"/>
<polygon fill="black" stroke="black" points="2416.59,-780.627 2409.73,-772.558 2410.06,-783.147 2416.59,-780.627"/>
<text text-anchor="middle" x="2394.1" y="-817.888" font-family="Times New Roman,serif" font-size="14.00">DEF</text>
</g>
<!-- 4&#45;&gt;18 -->
<g id="edge14" class="edge"><title>4&#45;&gt;18</title>
<path fill="none" stroke="black" d="M1416.66,-445.931C1402.22,-449.316 1382.86,-453.602 1365.6,-456.588 1318.96,-464.657 1264.75,-471.094 1229.73,-474.872"/>
<polygon fill="black" stroke="black" points="1229.09,-471.421 1219.51,-475.958 1229.82,-478.382 1229.09,-471.421"/>
<text text-anchor="middle" x="1309.6" y="-476.388" font-family="Times New Roman,serif" font-size="14.00">&#39;\n&#39;</text>
</g>
<!-- 4&#45;&gt;1 -->
<g id="edge18" class="edge"><title>4&#45;&gt;1</title>
<path fill="none" stroke="black" d="M1453.37,-460.131C1466.46,-481.247 1486.18,-516.348 1495.6,-549.588 1508.43,-594.864 1490.64,-719.511 1513.6,-760.588 1544.61,-816.067 1592.55,-793.242 1628.6,-845.588 1658.06,-888.372 1669.7,-948.641 1674.25,-985.853"/>
<polygon fill="black" stroke="black" points="1670.81,-986.61 1675.4,-996.16 1677.77,-985.834 1670.81,-986.61"/>
<text text-anchor="middle" x="1571.1" y="-849.388" font-family="Times New Roman,serif" font-size="14.00">DEF / k_begin</text>
</g>
<!-- 4&#45;&gt;5 -->
<g id="edge15" class="edge"><title>4&#45;&gt;5</title>
<path fill="none" stroke="black" d="M1463.1,-441.539C1505.13,-443.231 1598.45,-446.588 1677.1,-446.588 1677.1,-446.588 1677.1,-446.588 2506.6,-446.588 2682.84,-446.588 2726.86,-451.588 2903.1,-451.588 2903.1,-451.588 2903.1,-451.588 3221.6,-451.588 3282.1,-451.588 3297.05,-460.325 3355.6,-475.588 3358.77,-476.414 3362.04,-477.369 3365.29,-478.386"/>
<polygon fill="black" stroke="black" points="3364.26,-481.729 3374.85,-481.548 3366.46,-475.084 3364.26,-481.729"/>
<text text-anchor="middle" x="2616.1" y="-452.388" font-family="Times New Roman,serif" font-size="14.00">&#39;\r&#39;</text>
</g>
<!-- 4&#45;&gt;4 -->
<g id="edge13" class="edge"><title>4&#45;&gt;4</title>
<path fill="none" stroke="black" d="M1420.23,-454.19C1409.53,-467.483 1415.99,-482.088 1439.6,-482.088 1457.86,-482.088 1465.86,-473.351 1463.6,-463.242"/>
<polygon fill="black" stroke="black" points="1466.64,-461.499 1458.97,-454.19 1460.41,-464.687 1466.64,-461.499"/>
<text text-anchor="middle" x="1439.6" y="-485.888" font-family="Times New Roman,serif" font-size="14.00">&#39;\t&#39;, &#39;\v&#39;..&#39;\f&#39;, SP</text>
</g>
<!-- 4&#45;&gt;6 -->
<g id="edge16" class="edge"><title>4&#45;&gt;6</title>
<path fill="none" stroke="black" d="M1458.84,-454.37C1473.4,-465.171 1494.45,-480.366 1513.6,-492.588 1538.24,-508.317 1608.4,-547.539 1648.34,-569.696"/>
<polygon fill="black" stroke="black" points="1646.65,-572.759 1657.09,-574.544 1650.04,-566.636 1646.65,-572.759"/>
<text text-anchor="middle" x="1571.1" y="-561.388" font-family="Times New Roman,serif" font-size="14.00">&#39;#&#39;, &#39;;&#39; / k_begin</text>
</g>
<!-- 4&#45;&gt;7 -->
<g id="edge17" class="edge"><title>4&#45;&gt;7</title>
<path fill="none" stroke="black" d="M1457.53,-425.102C1491.85,-393.273 1571.25,-317.44 1628.6,-245.588 1640,-231.309 1651.27,-214.323 1660.08,-200.229"/>
<polygon fill="black" stroke="black" points="1663.23,-201.793 1665.49,-191.442 1657.27,-198.124 1663.23,-201.793"/>
<text text-anchor="middle" x="1571.1" y="-373.388" font-family="Times New Roman,serif" font-size="14.00">&#39;[&#39; / k_begin</text>
</g>
<!-- 6&#45;&gt;18 -->
<g id="edge20" class="edge"><title>6&#45;&gt;18</title>
<path fill="none" stroke="black" d="M1656.26,-594.624C1647.84,-597.814 1637.92,-601.002 1628.6,-602.588 1546.36,-616.583 1324.24,-629.952 1253.6,-585.588 1228.34,-569.728 1212.63,-539.299 1203.57,-514.933"/>
<polygon fill="black" stroke="black" points="1206.8,-513.55 1200.2,-505.261 1200.19,-515.855 1206.8,-513.55"/>
<text text-anchor="middle" x="1439.6" y="-620.388" font-family="Times New Roman,serif" font-size="14.00">&#39;\n&#39;</text>
</g>
<!-- 6&#45;&gt;2 -->
<g id="edge22" class="edge"><title>6&#45;&gt;2</title>
<path fill="none" stroke="black" d="M1699.32,-595.988C1736.84,-615.793 1818.81,-661.529 1878.6,-712.588 1927.14,-754.036 1974.37,-812.077 2000.11,-845.662"/>
<polygon fill="black" stroke="black" points="1997.65,-848.204 2006.49,-854.05 2003.22,-843.97 1997.65,-848.204"/>
<text text-anchor="middle" x="1803.1" y="-716.388" font-family="Times New Roman,serif" font-size="14.00">&#39;=&#39; / k_end</text>
</g>
<!-- 6&#45;&gt;5 -->
<g id="edge21" class="edge"><title>6&#45;&gt;5</title>
<path fill="none" stroke="black" d="M1701.84,-584.461C1756.61,-581.845 1900.17,-575.588 2020.1,-575.588 2020.1,-575.588 2020.1,-575.588 3221.6,-575.588 3283.04,-575.588 3304.16,-575.198 3355.6,-541.588 3364.72,-535.626 3372.67,-526.902 3379.04,-518.297"/>
<polygon fill="black" stroke="black" points="3382.08,-520.055 3384.88,-509.837 3376.32,-516.079 3382.08,-520.055"/>
<text text-anchor="middle" x="2695.1" y="-579.388" font-family="Times New Roman,serif" font-size="14.00">&#39;\r&#39;</text>
</g>
<!-- 6&#45;&gt;6 -->
<g id="edge23" class="edge"><title>6&#45;&gt;6</title>
<path fill="none" stroke="black" d="M1660.79,-601.775C1654.32,-614.307 1660.09,-627.088 1678.1,-627.088 1691.33,-627.088 1697.95,-620.195 1697.97,-611.57"/>
<polygon fill="black" stroke="black" points="1701.33,-610.561 1695.41,-601.775 1694.56,-612.336 1701.33,-610.561"/>
<text text-anchor="middle" x="1678.1" y="-630.888" font-family="Times New Roman,serif" font-size="14.00">DEF</text>
</g>
<!-- 8 -->
<g id="node13" class="node"><title>8</title>
<ellipse fill="none" stroke="black" cx="2394.1" cy="-189.588" rx="23.5" ry="23.5"/>
<text text-anchor="middle" x="2394.1" y="-185.888" font-family="Times New Roman,serif" font-size="14.00">8</text>
</g>
<!-- 7&#45;&gt;8 -->
<g id="edge24" class="edge"><title>7&#45;&gt;8</title>
<path fill="none" stroke="black" d="M1700.59,-178.902C1708.93,-181.446 1718.62,-184.046 1727.6,-185.588 1801.76,-198.323 1821.41,-192.661 1896.6,-195.588 2095.57,-203.335 2146.71,-222.748 2344.6,-200.588 2349.93,-199.991 2355.54,-199.035 2360.96,-197.93"/>
<polygon fill="black" stroke="black" points="2362.07,-201.27 2371.06,-195.677 2360.54,-194.438 2362.07,-201.27"/>
<text text-anchor="middle" x="2021.1" y="-214.388" font-family="Times New Roman,serif" font-size="14.00">&#45;128..&#39;\b&#39;, 14..31, &#39;!&#39;..&#39;&lt;&#39;, &#39;&gt;&#39;..127 / sec_begin</text>
</g>
<!-- 13 -->
<g id="node14" class="node"><title>13</title>
<ellipse fill="none" stroke="black" cx="2021.1" cy="-130.588" rx="23.5" ry="23.5"/>
<text text-anchor="middle" x="2021.1" y="-126.888" font-family="Times New Roman,serif" font-size="14.00">13</text>
</g>
<!-- 7&#45;&gt;13 -->
<g id="edge25" class="edge"><title>7&#45;&gt;13</title>
<path fill="none" stroke="black" d="M1701.47,-168.898C1760.12,-161.846 1918.52,-142.801 1987.39,-134.521"/>
<polygon fill="black" stroke="black" points="1988.13,-137.957 1997.64,-133.288 1987.3,-131.007 1988.13,-137.957"/>
<text text-anchor="middle" x="1803.1" y="-170.388" font-family="Times New Roman,serif" font-size="14.00">&#39;\t&#39;, &#39;\v&#39;..&#39;\f&#39;, SP / sec_begin</text>
</g>
<!-- 9 -->
<g id="node15" class="node"><title>9</title>
<ellipse fill="none" stroke="black" cx="2976.1" cy="-154.588" rx="23.5" ry="23.5"/>
<text text-anchor="middle" x="2976.1" y="-150.888" font-family="Times New Roman,serif" font-size="14.00">9</text>
</g>
<!-- 7&#45;&gt;9 -->
<g id="edge26" class="edge"><title>7&#45;&gt;9</title>
<path fill="none" stroke="black" d="M1698.93,-159.71C1707.53,-154.884 1717.86,-149.529 1727.6,-145.588 1851.23,-95.5733 1886.73,-78.5882 2020.1,-78.5882 2020.1,-78.5882 2020.1,-78.5882 2800.6,-78.5882 2856.78,-78.5882 2915.3,-112.109 2948.28,-134.626"/>
<polygon fill="black" stroke="black" points="2946.68,-137.78 2956.88,-140.649 2950.7,-132.046 2946.68,-137.78"/>
<text text-anchor="middle" x="2505.6" y="-82.3882" font-family="Times New Roman,serif" font-size="14.00">&#39;=&#39; / sec_begin, k_end</text>
</g>
<!-- 8&#45;&gt;8 -->
<g id="edge27" class="edge"><title>8&#45;&gt;8</title>
<path fill="none" stroke="black" d="M2376.38,-205.343C2369.29,-218.011 2375.19,-231.088 2394.1,-231.088 2408.13,-231.088 2415,-223.885 2414.72,-214.992"/>
<polygon fill="black" stroke="black" points="2418.05,-213.917 2411.82,-205.343 2411.34,-215.927 2418.05,-213.917"/>
<text text-anchor="middle" x="2394.1" y="-234.888" font-family="Times New Roman,serif" font-size="14.00">&#45;128..&#39;\t&#39;, &#39;\v&#39;..&#39;\f&#39;, 14..&#39;&lt;&#39;, &#39;&gt;&#39;..&#39;\&#39;, &#39;^&#39;..127</text>
</g>
<!-- 8&#45;&gt;9 -->
<g id="edge28" class="edge"><title>8&#45;&gt;9</title>
<path fill="none" stroke="black" d="M2417.79,-187.603C2425.93,-186.922 2435.17,-186.181 2443.6,-185.588 2632.41,-172.298 2859.24,-160.435 2942.45,-156.219"/>
<polygon fill="black" stroke="black" points="2942.74,-159.709 2952.55,-155.709 2942.39,-152.718 2942.74,-159.709"/>
<text text-anchor="middle" x="2695.1" y="-175.388" font-family="Times New Roman,serif" font-size="14.00">&#39;=&#39; / k_end</text>
</g>
<!-- 11 -->
<g id="node16" class="node"><title>11</title>
<ellipse fill="none" stroke="black" cx="2616.1" cy="-219.588" rx="23.5" ry="23.5"/>
<text text-anchor="middle" x="2616.1" y="-215.888" font-family="Times New Roman,serif" font-size="14.00">11</text>
</g>
<!-- 8&#45;&gt;11 -->
<g id="edge29" class="edge"><title>8&#45;&gt;11</title>
<path fill="none" stroke="black" d="M2417.73,-189.073C2450.98,-188.784 2514.82,-190.015 2567.6,-201.588 2573.2,-202.816 2579.02,-204.581 2584.58,-206.53"/>
<polygon fill="black" stroke="black" points="2583.63,-209.912 2594.22,-210.164 2586.1,-203.362 2583.63,-209.912"/>
<text text-anchor="middle" x="2505.6" y="-205.388" font-family="Times New Roman,serif" font-size="14.00">&#39;]&#39; / sec_end</text>
</g>
<!-- 13&#45;&gt;8 -->
<g id="edge54" class="edge"><title>13&#45;&gt;8</title>
<path fill="none" stroke="black" d="M2044.47,-134.146C2107.48,-144.167 2286.65,-172.659 2360.58,-184.417"/>
<polygon fill="black" stroke="black" points="2360.27,-187.912 2370.7,-186.026 2361.37,-180.999 2360.27,-187.912"/>
<text text-anchor="middle" x="2254.1" y="-185.388" font-family="Times New Roman,serif" font-size="14.00">&#45;128..&#39;\b&#39;, 14..31, &#39;!&#39;..&#39;&lt;&#39;, &#39;&gt;&#39;..127</text>
</g>
<!-- 13&#45;&gt;13 -->
<g id="edge55" class="edge"><title>13&#45;&gt;13</title>
<path fill="none" stroke="black" d="M1998.68,-138.331C1968.07,-152.755 1975.54,-172.088 2021.1,-172.088 2061.5,-172.088 2071.95,-156.887 2052.46,-143.386"/>
<polygon fill="black" stroke="black" points="2053.95,-140.208 2043.52,-138.331 2050.5,-146.301 2053.95,-140.208"/>
<text text-anchor="middle" x="2021.1" y="-175.888" font-family="Times New Roman,serif" font-size="14.00">&#39;\t&#39;, &#39;\v&#39;..&#39;\f&#39;, SP</text>
</g>
<!-- 13&#45;&gt;9 -->
<g id="edge56" class="edge"><title>13&#45;&gt;9</title>
<path fill="none" stroke="black" d="M2044.72,-131.158C2171.21,-134.343 2790.73,-149.945 2941.82,-153.75"/>
<polygon fill="black" stroke="black" points="2942.19,-157.26 2952.27,-154.013 2942.36,-150.263 2942.19,-157.26"/>
<text text-anchor="middle" x="2616.1" y="-150.388" font-family="Times New Roman,serif" font-size="14.00">&#39;=&#39; / k_end</text>
</g>
<!-- 9&#45;&gt;18 -->
<g id="edge30" class="edge"><title>9&#45;&gt;18</title>
<path fill="none" stroke="black" d="M2965.8,-133.381C2958.9,-119.813 2948.33,-102.729 2934.6,-91.5882 2885.11,-51.4421 2864.32,-40.5882 2800.6,-40.5882 2253.1,-40.5882 2253.1,-40.5882 2253.1,-40.5882 2018.57,-40.5882 1957.6,-42.7237 1727.6,-88.5882 1562.31,-121.549 1527.48,-154.663 1365.6,-201.588 1316.1,-215.936 1289.65,-194.76 1253.6,-231.588 1224.7,-261.117 1205.72,-379.504 1197.6,-441.029"/>
<polygon fill="black" stroke="black" points="1194.11,-440.742 1196.3,-451.107 1201.05,-441.637 1194.11,-440.742"/>
<text text-anchor="middle" x="2254.1" y="-45.3882" font-family="Times New Roman,serif" font-size="14.00">&#39;\n&#39; / v_begin, v_end</text>
</g>
<!-- 9&#45;&gt;5 -->
<g id="edge31" class="edge"><title>9&#45;&gt;5</title>
<path fill="none" stroke="black" d="M2995.58,-141.432C3002.21,-137.457 3009.94,-133.612 3017.6,-131.588 3130.21,-101.843 3180.49,-105.788 3276.6,-171.588 3323.34,-203.586 3332.19,-220.014 3355.6,-271.588 3383.31,-332.628 3392.06,-411.499 3394.83,-455.697"/>
<polygon fill="black" stroke="black" points="3391.34,-456.104 3395.39,-465.893 3398.33,-455.714 3391.34,-456.104"/>
<text text-anchor="middle" x="3220.6" y="-175.388" font-family="Times New Roman,serif" font-size="14.00">&#39;\r&#39; / v_begin, v_end</text>
</g>
<!-- 9&#45;&gt;9 -->
<g id="edge33" class="edge"><title>9&#45;&gt;9</title>
<path fill="none" stroke="black" d="M2963.25,-174.658C2960.85,-185.815 2965.13,-196.088 2976.1,-196.088 2983.47,-196.088 2987.82,-191.451 2989.16,-185.023"/>
<polygon fill="black" stroke="black" points="2992.65,-184.587 2988.95,-174.658 2985.65,-184.725 2992.65,-184.587"/>
<text text-anchor="middle" x="2976.1" y="-199.888" font-family="Times New Roman,serif" font-size="14.00">&#39;=&#39; / k_end, v_begin</text>
</g>
<!-- 10 -->
<g id="node17" class="node"><title>10</title>
<ellipse fill="none" stroke="black" cx="3220.6" cy="-219.588" rx="23.5" ry="23.5"/>
<text text-anchor="middle" x="3220.6" y="-215.888" font-family="Times New Roman,serif" font-size="14.00">10</text>
</g>
<!-- 9&#45;&gt;10 -->
<g id="edge32" class="edge"><title>9&#45;&gt;10</title>
<path fill="none" stroke="black" d="M2980.95,-177.786C2985.71,-198.249 2996,-226.885 3017.6,-240.588 3070.66,-274.249 3147.74,-250.867 3189.68,-233.55"/>
<polygon fill="black" stroke="black" points="3191.24,-236.688 3199.06,-229.535 3188.49,-230.253 3191.24,-236.688"/>
<text text-anchor="middle" x="3082.1" y="-262.388" font-family="Times New Roman,serif" font-size="14.00">&#39;#&#39;, &#39;;&#39; / v_begin, v_end</text>
</g>
<!-- 9&#45;&gt;10 -->
<g id="edge34" class="edge"><title>9&#45;&gt;10</title>
<path fill="none" stroke="black" d="M2988.72,-174.762C2995.71,-184.926 3005.59,-196.381 3017.6,-202.588 3046.22,-217.377 3137.2,-219.708 3186.72,-219.836"/>
<polygon fill="black" stroke="black" points="3186.92,-223.336 3196.91,-219.833 3186.91,-216.336 3186.92,-223.336"/>
<text text-anchor="middle" x="3082.1" y="-223.388" font-family="Times New Roman,serif" font-size="14.00">&#39;]&#39; / sec_end, v_begin</text>
</g>
<!-- 9&#45;&gt;10 -->
<g id="edge35" class="edge"><title>9&#45;&gt;10</title>
<path fill="none" stroke="black" d="M2999.3,-160.475C3005.22,-161.934 3011.63,-163.414 3017.6,-164.588 3074.46,-175.769 3091.27,-166.341 3146.6,-183.588 3161.91,-188.36 3177.98,-195.973 3191.14,-202.973"/>
<polygon fill="black" stroke="black" points="3189.71,-206.175 3200.16,-207.911 3193.07,-200.036 3189.71,-206.175"/>
<text text-anchor="middle" x="3082.1" y="-187.388" font-family="Times New Roman,serif" font-size="14.00">DEF / v_begin</text>
</g>
<!-- 11&#45;&gt;18 -->
<g id="edge43" class="edge"><title>11&#45;&gt;18</title>
<path fill="none" stroke="black" d="M2595.91,-232.007C2587.51,-236.924 2577.37,-242.201 2567.6,-245.588 2494.15,-271.051 2472.84,-274.588 2395.1,-274.588 1438.6,-274.588 1438.6,-274.588 1438.6,-274.588 1354.84,-274.588 1317.2,-256.073 1253.6,-310.588 1215.41,-343.322 1201.33,-402.045 1196.13,-440.666"/>
<polygon fill="black" stroke="black" points="1192.61,-440.641 1194.89,-450.988 1199.56,-441.477 1192.61,-440.641"/>
<text text-anchor="middle" x="1803.1" y="-278.388" font-family="Times New Roman,serif" font-size="14.00">&#39;\n&#39;</text>
</g>
<!-- 11&#45;&gt;5 -->
<g id="edge44" class="edge"><title>11&#45;&gt;5</title>
<path fill="none" stroke="black" d="M2628.98,-239.341C2648.61,-269.996 2690.9,-328.327 2743.6,-355.588 2987.35,-481.677 3117.6,-300.957 3355.6,-437.588 3365.23,-443.114 3373.37,-451.918 3379.78,-460.723"/>
<polygon fill="black" stroke="black" points="3376.89,-462.709 3385.38,-469.057 3382.71,-458.805 3376.89,-462.709"/>
<text text-anchor="middle" x="2976.1" y="-407.388" font-family="Times New Roman,serif" font-size="14.00">&#39;\r&#39;</text>
</g>
<!-- 11&#45;&gt;8 -->
<g id="edge48" class="edge"><title>11&#45;&gt;8</title>
<path fill="none" stroke="black" d="M2592.69,-222.602C2559.48,-226.314 2495.51,-230.548 2443.6,-216.588 2436.6,-214.705 2429.52,-211.596 2423.02,-208.144"/>
<polygon fill="black" stroke="black" points="2424.39,-204.897 2413.98,-202.945 2420.9,-210.965 2424.39,-204.897"/>
<text text-anchor="middle" x="2505.6" y="-230.388" font-family="Times New Roman,serif" font-size="14.00">DEF</text>
</g>
<!-- 11&#45;&gt;9 -->
<g id="edge46" class="edge"><title>11&#45;&gt;9</title>
<path fill="none" stroke="black" d="M2639.7,-217.322C2692.11,-211.772 2825.76,-195.92 2934.6,-168.588 2937.77,-167.791 2941.05,-166.854 2944.31,-165.849"/>
<polygon fill="black" stroke="black" points="2945.47,-169.154 2953.87,-162.702 2943.28,-162.504 2945.47,-169.154"/>
<text text-anchor="middle" x="2799.6" y="-208.388" font-family="Times New Roman,serif" font-size="14.00">&#39;=&#39; / k_end</text>
</g>
<!-- 11&#45;&gt;11 -->
<g id="edge42" class="edge"><title>11&#45;&gt;11</title>
<path fill="none" stroke="black" d="M2608.9,-242.213C2608.22,-252.334 2610.62,-261.088 2616.1,-261.088 2619.61,-261.088 2621.86,-257.496 2622.84,-252.252"/>
<polygon fill="black" stroke="black" points="2626.34,-252.361 2623.3,-242.213 2619.35,-252.043 2626.34,-252.361"/>
<text text-anchor="middle" x="2616.1" y="-264.888" font-family="Times New Roman,serif" font-size="14.00">&#39;\t&#39;, &#39;\v&#39;..&#39;\f&#39;, SP</text>
</g>
<!-- 11&#45;&gt;11 -->
<g id="edge47" class="edge"><title>11&#45;&gt;11</title>
<path fill="none" stroke="black" d="M2604.18,-240.014C2598.19,-258.818 2602.16,-279.088 2616.1,-279.088 2627.53,-279.088 2632.26,-265.448 2630.29,-250.166"/>
<polygon fill="black" stroke="black" points="2633.62,-249.012 2628.02,-240.014 2626.78,-250.536 2633.62,-249.012"/>
<text text-anchor="middle" x="2616.1" y="-282.888" font-family="Times New Roman,serif" font-size="14.00">&#39;]&#39; / sec_end</text>
</g>
<!-- 12 -->
<g id="node18" class="node"><title>12</title>
<ellipse fill="none" stroke="black" cx="2799.6" cy="-257.588" rx="23.5" ry="23.5"/>
<text text-anchor="middle" x="2799.6" y="-253.888" font-family="Times New Roman,serif" font-size="14.00">12</text>
</g>
<!-- 11&#45;&gt;12 -->
<g id="edge45" class="edge"><title>11&#45;&gt;12</title>
<path fill="none" stroke="black" d="M2639.36,-224.248C2671.15,-230.904 2729.75,-243.173 2766.31,-250.828"/>
<polygon fill="black" stroke="black" points="2765.94,-254.326 2776.45,-252.95 2767.38,-247.475 2765.94,-254.326"/>
<text text-anchor="middle" x="2695.1" y="-246.388" font-family="Times New Roman,serif" font-size="14.00">&#39;#&#39;, &#39;;&#39;</text>
</g>
<!-- 10&#45;&gt;18 -->
<g id="edge36" class="edge"><title>10&#45;&gt;18</title>
<path fill="none" stroke="black" d="M3203.29,-235.829C3189.34,-248.87 3168.14,-266.738 3146.6,-277.588 3027.02,-337.827 2988.25,-337.318 2855.6,-355.588 2811.51,-361.66 1292.05,-352.172 1253.6,-374.588 1228.54,-389.199 1212.87,-418.561 1203.77,-442.371"/>
<polygon fill="black" stroke="black" points="1200.45,-441.249 1200.38,-451.843 1207.04,-443.61 1200.45,-441.249"/>
<text text-anchor="middle" x="2394.1" y="-362.388" font-family="Times New Roman,serif" font-size="14.00">&#39;\n&#39; / v_end</text>
</g>
<!-- 10&#45;&gt;5 -->
<g id="edge37" class="edge"><title>10&#45;&gt;5</title>
<path fill="none" stroke="black" d="M3240.74,-231.716C3269.97,-251.247 3325.52,-292.495 3355.6,-341.588 3377.42,-377.2 3387.7,-424.701 3392.4,-456.173"/>
<polygon fill="black" stroke="black" points="3388.95,-456.765 3393.78,-466.191 3395.88,-455.805 3388.95,-456.765"/>
<text text-anchor="middle" x="3325.1" y="-345.388" font-family="Times New Roman,serif" font-size="14.00">&#39;\r&#39; / v_end</text>
</g>
<!-- 10&#45;&gt;9 -->
<g id="edge39" class="edge"><title>10&#45;&gt;9</title>
<path fill="none" stroke="black" d="M3207.26,-200.194C3194.55,-182.199 3172.91,-156.589 3146.6,-145.588 3101.44,-126.703 3043.53,-136.114 3008.42,-145.052"/>
<polygon fill="black" stroke="black" points="3007.47,-141.682 2998.72,-147.657 3009.29,-148.442 3007.47,-141.682"/>
<text text-anchor="middle" x="3082.1" y="-149.388" font-family="Times New Roman,serif" font-size="14.00">&#39;=&#39; / k_end</text>
</g>
<!-- 10&#45;&gt;10 -->
<g id="edge38" class="edge"><title>10&#45;&gt;10</title>
<path fill="none" stroke="black" d="M3214.2,-242.213C3213.59,-252.334 3215.73,-261.088 3220.6,-261.088 3223.72,-261.088 3225.72,-257.496 3226.59,-252.252"/>
<polygon fill="black" stroke="black" points="3230.09,-252.346 3227,-242.213 3223.1,-252.063 3230.09,-252.346"/>
<text text-anchor="middle" x="3220.6" y="-264.888" font-family="Times New Roman,serif" font-size="14.00">&#39;#&#39;, &#39;;&#39; / v_end</text>
</g>
<!-- 10&#45;&gt;10 -->
<g id="edge40" class="edge"><title>10&#45;&gt;10</title>
<path fill="none" stroke="black" d="M3209.83,-240.631C3204.75,-259.259 3208.34,-279.088 3220.6,-279.088 3230.65,-279.088 3234.88,-265.745 3233.27,-250.667"/>
<polygon fill="black" stroke="black" points="3236.67,-249.807 3231.37,-240.631 3229.79,-251.107 3236.67,-249.807"/>
<text text-anchor="middle" x="3220.6" y="-282.888" font-family="Times New Roman,serif" font-size="14.00">&#39;]&#39; / sec_end</text>
</g>
<!-- 10&#45;&gt;10 -->
<g id="edge41" class="edge"><title>10&#45;&gt;10</title>
<path fill="none" stroke="black" d="M3207.27,-239.439C3195.84,-265.553 3200.29,-297.088 3220.6,-297.088 3238.45,-297.088 3244.05,-272.728 3237.38,-249.098"/>
<polygon fill="black" stroke="black" points="3240.59,-247.677 3233.93,-239.439 3234,-250.033 3240.59,-247.677"/>
<text text-anchor="middle" x="3220.6" y="-300.888" font-family="Times New Roman,serif" font-size="14.00">DEF</text>
</g>
<!-- 12&#45;&gt;18 -->
<g id="edge49" class="edge"><title>12&#45;&gt;18</title>
<path fill="none" stroke="black" d="M2780.44,-271.706C2749.02,-294.673 2681.67,-337.588 2617.1,-337.588 1677.1,-337.588 1677.1,-337.588 1677.1,-337.588 1630.04,-337.588 1292.72,-312.442 1253.6,-338.588 1219.53,-361.356 1204.54,-407.756 1198.02,-440.898"/>
<polygon fill="black" stroke="black" points="1194.5,-440.685 1196.18,-451.145 1201.39,-441.919 1194.5,-440.685"/>
<text text-anchor="middle" x="2021.1" y="-341.388" font-family="Times New Roman,serif" font-size="14.00">&#39;\n&#39;</text>
</g>
<!-- 12&#45;&gt;5 -->
<g id="edge50" class="edge"><title>12&#45;&gt;5</title>
<path fill="none" stroke="black" d="M2822.71,-263.433C2879.41,-278.377 3034.67,-319.028 3164.6,-350.588 3249.25,-371.149 3288.81,-338.661 3355.6,-394.588 3374.26,-410.218 3384.52,-435.993 3390.04,-456.754"/>
<polygon fill="black" stroke="black" points="3386.64,-457.577 3392.39,-466.477 3393.45,-455.935 3386.64,-457.577"/>
<text text-anchor="middle" x="3082.1" y="-350.388" font-family="Times New Roman,serif" font-size="14.00">&#39;\r&#39;</text>
</g>
<!-- 12&#45;&gt;9 -->
<g id="edge51" class="edge"><title>12&#45;&gt;9</title>
<path fill="none" stroke="black" d="M2823.06,-254.96C2851.48,-250.676 2900.79,-239.958 2934.6,-214.588 2945.12,-206.691 2953.81,-195.219 2960.41,-184.417"/>
<polygon fill="black" stroke="black" points="2963.53,-186.012 2965.45,-175.593 2957.45,-182.539 2963.53,-186.012"/>
<text text-anchor="middle" x="2904.1" y="-247.388" font-family="Times New Roman,serif" font-size="14.00">&#39;=&#39; / k_end</text>
</g>
<!-- 12&#45;&gt;12 -->
<g id="edge52" class="edge"><title>12&#45;&gt;12</title>
<path fill="none" stroke="black" d="M2790.09,-279.366C2788.91,-289.841 2792.08,-299.088 2799.6,-299.088 2804.53,-299.088 2807.59,-295.106 2808.78,-289.408"/>
<polygon fill="black" stroke="black" points="2812.28,-289.475 2809.11,-279.366 2805.29,-289.246 2812.28,-289.475"/>
<text text-anchor="middle" x="2799.6" y="-302.888" font-family="Times New Roman,serif" font-size="14.00">&#39;]&#39; / sec_end</text>
</g>
<!-- 12&#45;&gt;12 -->
<g id="edge53" class="edge"><title>12&#45;&gt;12</title>
<path fill="none" stroke="black" d="M2784.68,-275.863C2775.33,-295.238 2780.3,-317.088 2799.6,-317.088 2815.73,-317.088 2821.85,-301.82 2817.97,-285.492"/>
<polygon fill="black" stroke="black" points="2821.19,-284.1 2814.52,-275.863 2814.6,-286.458 2821.19,-284.1"/>
<text text-anchor="middle" x="2799.6" y="-320.888" font-family="Times New Roman,serif" font-size="14.00">DEF</text>
</g>
<!-- 14&#45;&gt;1 -->
<g id="edge57" class="edge"><title>14&#45;&gt;1</title>
<path fill="none" stroke="black" d="M260.262,-1108.52C269.394,-1150.76 295.415,-1236.59 356.1,-1236.59 356.1,-1236.59 356.1,-1236.59 582.1,-1236.59 872.667,-1236.59 950.456,-1273.46 1235.6,-1217.59 1418.61,-1181.73 1473.05,-1173.45 1628.6,-1070.59 1638.74,-1063.88 1648.33,-1054.68 1656.26,-1045.94"/>
<polygon fill="black" stroke="black" points="1659.13,-1047.97 1663.05,-1038.12 1653.85,-1043.38 1659.13,-1047.97"/>
<text text-anchor="middle" x="760.1" y="-1251.39" font-family="Times New Roman,serif" font-size="14.00">&#45;128..&#45;70, &#45;68..&#39;\t&#39;, &#39;\v&#39;..&#39;\f&#39;, 14..&#39;&lt;&#39;, &#39;&gt;&#39;..127</text>
</g>
<!-- 14&#45;&gt;2 -->
<g id="edge59" class="edge"><title>14&#45;&gt;2</title>
<path fill="none" stroke="black" d="M278.801,-1084.64C306.917,-1083.51 356.282,-1081.63 398.6,-1080.59 619.444,-1075.16 674.695,-1075.14 895.6,-1073.59 1000.04,-1072.85 1026.16,-1072.48 1130.6,-1073.59 1387.97,-1076.33 1454.88,-1121.48 1709.6,-1084.59 1787.12,-1073.36 1812.66,-1076.87 1878.6,-1034.59 1933.22,-999.557 1978.89,-937.439 2002.59,-901.149"/>
<polygon fill="black" stroke="black" points="2005.68,-902.818 2008.13,-892.511 1999.79,-899.036 2005.68,-902.818"/>
<text text-anchor="middle" x="1013.1" y="-1077.39" font-family="Times New Roman,serif" font-size="14.00">&#39;=&#39; / k_end</text>
</g>
<!-- 15 -->
<g id="node20" class="node"><title>15</title>
<ellipse fill="none" stroke="black" cx="357.1" cy="-1124.59" rx="23.5" ry="23.5"/>
<text text-anchor="middle" x="357.1" y="-1120.89" font-family="Times New Roman,serif" font-size="14.00">15</text>
</g>
<!-- 14&#45;&gt;15 -->
<g id="edge58" class="edge"><title>14&#45;&gt;15</title>
<path fill="none" stroke="black" d="M277.307,-1093.86C291.228,-1099.29 309.666,-1106.48 325.206,-1112.54"/>
<polygon fill="black" stroke="black" points="324.335,-1115.96 334.923,-1116.33 326.878,-1109.43 324.335,-1115.96"/>
<text text-anchor="middle" x="306.1" y="-1112.39" font-family="Times New Roman,serif" font-size="14.00">&#45;69</text>
</g>
<!-- 15&#45;&gt;19 -->
<g id="edge61" class="edge"><title>15&#45;&gt;19</title>
<path fill="none" stroke="black" d="M365.967,-1102.75C386.069,-1046.94 439.456,-898.713 463.971,-830.651"/>
<polygon fill="black" stroke="black" points="467.275,-831.806 467.371,-821.212 460.689,-829.434 467.275,-831.806"/>
<text text-anchor="middle" x="408.1" y="-1013.39" font-family="Times New Roman,serif" font-size="14.00">&#45;65</text>
</g>
<!-- 15&#45;&gt;1 -->
<g id="edge60" class="edge"><title>15&#45;&gt;1</title>
<path fill="none" stroke="black" d="M380.877,-1124.13C473.979,-1122.17 834.694,-1113.55 1130.6,-1092.59 1352.49,-1076.87 1414.3,-1102.23 1628.6,-1042.59 1635.08,-1040.78 1641.76,-1038.17 1648.02,-1035.34"/>
<polygon fill="black" stroke="black" points="1649.92,-1038.31 1657.4,-1030.82 1646.88,-1032.01 1649.92,-1038.31"/>
<text text-anchor="middle" x="1013.1" y="-1110.39" font-family="Times New Roman,serif" font-size="14.00">&#45;128..&#45;66, &#45;64..&#39;\t&#39;, &#39;\v&#39;..&#39;\f&#39;, 14..&#39;&lt;&#39;, &#39;&gt;&#39;..127</text>
</g>
<!-- 15&#45;&gt;2 -->
<g id="edge62" class="edge"><title>15&#45;&gt;2</title>
<path fill="none" stroke="black" d="M379.281,-1132.49C385.431,-1134.48 392.213,-1136.39 398.6,-1137.59 886.55,-1229.06 1017.37,-1189.69 1513.6,-1204.59 1564.69,-1206.12 1578.11,-1212.56 1628.6,-1204.59 1743.97,-1186.37 1788.18,-1197.52 1878.6,-1123.59 1951,-1064.39 1993.12,-957.795 2010.57,-904.599"/>
<polygon fill="black" stroke="black" points="2013.93,-905.597 2013.64,-895.006 2007.26,-903.464 2013.93,-905.597"/>
<text text-anchor="middle" x="1192.1" y="-1205.39" font-family="Times New Roman,serif" font-size="14.00">&#39;=&#39; / k_end</text>
</g>
<!-- 16&#45;&gt;18 -->
<g id="edge64" class="edge"><title>16&#45;&gt;18</title>
<path fill="none" stroke="black" d="M783.276,-825.952C846.556,-808.77 1029.89,-751.157 1130.6,-637.588 1161.45,-602.793 1177.24,-550.65 1184.82,-515.662"/>
<polygon fill="black" stroke="black" points="1188.26,-516.335 1186.84,-505.836 1181.4,-514.93 1188.26,-516.335"/>
<text text-anchor="middle" x="1013.1" y="-791.388" font-family="Times New Roman,serif" font-size="14.00">&#39;\n&#39;</text>
</g>
<!-- 16&#45;&gt;1 -->
<g id="edge69" class="edge"><title>16&#45;&gt;1</title>
<path fill="none" stroke="black" d="M777.636,-847.74C801.443,-869.837 847.794,-908.676 895.6,-925.588 1093.01,-995.429 1158.01,-931.081 1365.6,-958.588 1468.5,-972.223 1588.61,-998.817 1644.9,-1011.92"/>
<polygon fill="black" stroke="black" points="1644.44,-1015.4 1654.97,-1014.28 1646.03,-1008.59 1644.44,-1015.4"/>
<text text-anchor="middle" x="1309.6" y="-962.388" font-family="Times New Roman,serif" font-size="14.00">DEF / k_begin</text>
</g>
<!-- 16&#45;&gt;2 -->
<g id="edge67" class="edge"><title>16&#45;&gt;2</title>
<path fill="none" stroke="black" d="M783.423,-835.122C810.069,-839.251 856,-846.091 895.6,-850.588 1161.21,-880.756 1228.33,-897.682 1495.6,-892.588 1681.95,-889.037 1905.34,-878.393 1987.62,-874.258"/>
<polygon fill="black" stroke="black" points="1987.81,-877.753 1997.62,-873.752 1987.45,-870.762 1987.81,-877.753"/>
<text text-anchor="middle" x="1439.6" y="-897.388" font-family="Times New Roman,serif" font-size="14.00">&#39;=&#39; / k_end, k_begin</text>
</g>
<!-- 16&#45;&gt;5 -->
<g id="edge65" class="edge"><title>16&#45;&gt;5</title>
<path fill="none" stroke="black" d="M763.896,-854.905C772.126,-912.157 801.902,-1059.77 895.6,-1125.59 1038.2,-1225.76 1502.83,-1190.59 1677.1,-1190.59 1677.1,-1190.59 1677.1,-1190.59 3221.6,-1190.59 3360.79,-1190.59 3389.8,-663.582 3395.05,-523.461"/>
<polygon fill="black" stroke="black" points="3398.55,-523.432 3395.41,-513.313 3391.56,-523.182 3398.55,-523.432"/>
<text text-anchor="middle" x="2394.1" y="-1194.39" font-family="Times New Roman,serif" font-size="14.00">&#39;\r&#39;</text>
</g>
<!-- 16&#45;&gt;6 -->
<g id="edge66" class="edge"><title>16&#45;&gt;6</title>
<path fill="none" stroke="black" d="M783.724,-832.292C913.971,-836.125 1564.63,-852.227 1628.6,-793.588 1651.23,-772.839 1638.46,-686.197 1646.6,-656.588 1650.41,-642.706 1656.39,-627.987 1662.05,-615.571"/>
<polygon fill="black" stroke="black" points="1665.38,-616.707 1666.46,-606.167 1659.04,-613.729 1665.38,-616.707"/>
<text text-anchor="middle" x="1309.6" y="-840.388" font-family="Times New Roman,serif" font-size="14.00">&#39;#&#39;, &#39;;&#39; / k_begin</text>
</g>
<!-- 16&#45;&gt;7 -->
<g id="edge68" class="edge"><title>16&#45;&gt;7</title>
<path fill="none" stroke="black" d="M781.302,-820.824C807.99,-805.467 854.326,-774.638 877.6,-734.588 900.51,-695.165 876.06,-674.785 895.6,-633.588 921.77,-578.414 1199.54,-244.983 1253.6,-216.588 1384.93,-147.61 1570.53,-159.111 1644.67,-167.313"/>
<polygon fill="black" stroke="black" points="1644.44,-170.81 1654.78,-168.489 1645.25,-163.857 1644.44,-170.81"/>
<text text-anchor="middle" x="1309.6" y="-220.388" font-family="Times New Roman,serif" font-size="14.00">&#39;[&#39; / k_begin</text>
</g>
<!-- 16&#45;&gt;16 -->
<g id="edge63" class="edge"><title>16&#45;&gt;16</title>
<path fill="none" stroke="black" d="M738.491,-841.382C717.436,-855.52 724.639,-873.088 760.1,-873.088 790.02,-873.088 799.823,-860.581 789.509,-848.18"/>
<polygon fill="black" stroke="black" points="791.547,-845.314 781.709,-841.382 786.948,-850.591 791.547,-845.314"/>
<text text-anchor="middle" x="760.1" y="-876.888" font-family="Times New Roman,serif" font-size="14.00">&#39;\t&#39;, &#39;\v&#39;..&#39;\f&#39;, SP</text>
</g>
</g>
</svg>
